<?xml version="1.0" standalone="no"?>
<!DOCTYPE svg PUBLIC "-//W3C//DTD SVG 20010904//EN"
 "http://www.w3.org/TR/2001/REC-SVG-20010904/DTD/svg10.dtd">
<svg version="1.0" xmlns="http://www.w3.org/2000/svg"
 width="460.000000pt" height="460.000000pt" viewBox="0 0 460.000000 460.000000"
 preserveAspectRatio="xMidYMid meet">
<metadata>
Created by potrace 1.11, written by Peter Selinger 2001-2013
</metadata>
<g transform="translate(0.000000,460.000000) scale(0.100000,-0.100000)"
fill="#000000" stroke="none">
<path d="M2495 4336 c-79 -22 -81 -25 -48 -87 15 -30 31 -56 36 -57 4 -2 14
-18 23 -35 8 -18 28 -54 44 -82 16 -27 37 -66 47 -85 10 -19 36 -62 56 -95 73
-115 106 -170 146 -250 23 -44 45 -87 51 -95 15 -23 100 -207 100 -217 0 -4 9
-26 21 -47 11 -21 17 -41 14 -44 -7 -7 80 -33 190 -58 39 -9 82 -22 97 -30 14
-8 34 -14 45 -14 10 0 43 -9 73 -20 30 -11 56 -20 57 -20 2 0 3 -11 3 -25 0
-19 -5 -25 -23 -25 -13 0 -27 4 -32 9 -13 12 -185 68 -232 76 -21 3 -60 12
-88 20 -77 22 -265 54 -383 66 -119 13 -671 5 -762 -10 -148 -24 -250 -43
-295 -56 -27 -8 -93 -24 -145 -35 -101 -23 -159 -40 -175 -51 -19 -14 -125
-46 -125 -38 0 23 17 40 63 62 69 32 173 73 222 87 65 19 95 32 90 39 -4 7 52
122 149 306 27 50 57 108 68 130 12 22 23 42 27 45 6 5 23 34 65 110 13 25 90
144 171 265 l147 220 -112 3 c-139 3 -253 -21 -388 -85 -51 -23 -97 -43 -103
-43 -5 0 -9 -4 -9 -10 0 -5 -7 -10 -15 -10 -8 0 -15 -4 -15 -10 0 -5 -4 -10
-10 -10 -10 0 -104 -64 -128 -87 -7 -7 -17 -13 -21 -13 -5 0 -60 -51 -123
-112 -109 -107 -233 -251 -259 -300 -7 -13 -16 -25 -20 -28 -13 -9 -54 -73
-70 -108 -7 -17 -17 -32 -21 -32 -4 0 -15 -15 -23 -32 -9 -18 -27 -51 -40 -73
-26 -42 -47 -84 -76 -150 -9 -22 -26 -60 -37 -85 -11 -25 -24 -59 -28 -75 -4
-17 -10 -34 -14 -40 -4 -5 -15 -37 -25 -70 -10 -33 -21 -64 -25 -70 -4 -5 -15
-37 -23 -70 -9 -33 -28 -100 -42 -150 -15 -49 -35 -124 -46 -165 -10 -41 -23
-86 -28 -100 -5 -14 -14 -50 -21 -80 -7 -30 -16 -59 -20 -65 -4 -5 -14 -37
-21 -70 -7 -33 -18 -71 -24 -85 -7 -14 -16 -45 -20 -70 -4 -25 -13 -56 -20
-70 -7 -14 -20 -54 -28 -90 -9 -36 -23 -83 -31 -105 -8 -22 -15 -48 -16 -58 0
-10 -5 -28 -12 -40 -12 -21 -41 -98 -73 -192 -7 -22 -23 -59 -34 -82 -12 -23
-21 -48 -21 -56 0 -8 -6 -20 -14 -26 -7 -6 -16 -26 -20 -43 -3 -17 -11 -37
-16 -43 -6 -7 -30 -51 -55 -100 -41 -79 -53 -115 -40 -115 7 0 44 31 64 52 8
10 20 18 26 18 5 0 21 9 35 20 20 16 41 20 103 20 83 0 107 -10 166 -72 62
-64 62 -64 59 -151 l-3 -82 -227 -3 -228 -2 0 -390 0 -390 2300 0 2300 0 0
390 0 390 -56 0 c-52 0 -55 1 -43 18 13 16 13 16 -7 0 -13 -12 -37 -18 -68
-18 -44 0 -47 1 -40 23 l6 22 -19 -23 c-19 -21 -28 -22 -158 -22 l-137 0 7 97
c7 103 23 143 79 205 23 26 31 28 120 32 84 3 99 1 127 -18 59 -38 74 -46 95
-46 22 0 57 -33 67 -62 4 -10 11 -18 17 -18 6 0 10 39 10 104 0 95 -2 108 -30
162 -16 32 -30 63 -30 68 0 5 -11 32 -24 60 -28 59 -57 125 -81 181 -9 22 -23
54 -30 70 -7 17 -23 57 -35 90 -12 33 -30 78 -40 100 -10 22 -31 78 -46 125
-15 47 -35 108 -44 135 -27 76 -57 176 -65 215 -4 19 -11 40 -15 45 -4 6 -11
28 -14 50 -7 38 -7 39 9 20 9 -11 5 1 -9 26 -14 26 -30 66 -37 90 -6 24 -17
69 -24 99 -8 30 -19 73 -25 95 -6 22 -15 56 -19 75 -5 19 -17 62 -28 95 -11
33 -26 80 -33 105 -7 25 -16 54 -20 65 -5 11 -21 56 -36 100 -15 44 -35 98
-44 120 -10 22 -23 56 -30 75 -16 44 -49 120 -60 140 -5 8 -27 47 -49 85 -59
104 -166 223 -306 340 -33 27 -67 57 -75 66 -8 9 -53 42 -100 74 -47 33 -86
63 -88 67 -2 4 -10 8 -17 8 -8 0 -18 6 -22 13 -4 7 -44 31 -88 53 -44 21 -82
42 -85 45 -3 3 -32 16 -65 29 -33 13 -64 26 -70 30 -5 4 -44 19 -86 34 -82 28
-170 33 -244 12z m-798 -1424 c2 -222 9 -325 33 -486 6 -44 10 -90 7 -103 -2
-13 0 -23 4 -23 5 0 12 -12 15 -27 4 -16 15 -54 25 -85 11 -32 19 -74 19 -94
l0 -37 -52 8 c-170 24 -208 23 -513 -14 -44 -5 -82 -8 -84 -5 -2 2 8 31 23 64
14 34 26 69 26 79 0 9 4 21 8 26 5 6 15 26 22 45 7 19 24 59 37 88 12 29 23
56 23 61 0 4 11 30 25 57 14 27 25 53 25 59 0 28 48 106 70 114 18 7 20 10 7
10 -16 1 -13 12 23 79 23 42 47 84 54 92 13 17 30 47 63 108 12 23 31 55 42
70 10 15 35 53 55 85 20 31 37 57 38 57 2 0 4 -102 5 -228z m1372 87 c6 -19
11 -49 12 -65 1 -16 5 -40 9 -54 6 -17 7 -10 4 25 l-5 50 19 -41 c11 -23 23
-52 27 -65 4 -13 18 -48 32 -77 13 -30 25 -62 26 -73 1 -10 7 -19 14 -19 7 0
15 -15 19 -34 3 -19 12 -37 20 -40 8 -3 14 -12 14 -21 0 -14 14 -43 33 -69 4
-6 27 -49 51 -96 66 -128 74 -142 83 -149 5 -3 21 -27 36 -52 14 -26 36 -57
47 -70 116 -138 121 -151 51 -131 -20 6 -58 16 -86 22 -27 7 -57 14 -65 17 -8
3 -24 5 -36 4 -11 -1 -77 5 -146 13 -213 27 -401 15 -414 -26 -3 -10 -9 -18
-14 -18 -4 0 -10 -6 -13 -12 -3 -10 7 -12 38 -10 l42 4 5 -74 c5 -78 27 -132
73 -181 18 -19 32 -26 44 -21 32 13 56 15 96 7 30 -7 40 -14 40 -28 0 -16 -9
-21 -40 -26 l-40 -6 43 -8 c23 -4 42 -10 42 -14 0 -11 168 -12 175 -1 3 5 15
10 26 10 44 0 127 67 180 144 13 20 29 34 35 32 7 -3 10 3 7 13 -2 9 5 38 17
65 18 44 23 48 46 42 22 -6 25 -4 20 10 -5 14 -4 15 8 4 9 -6 14 -17 13 -23
-1 -6 8 -13 20 -15 38 -6 46 -27 44 -114 -1 -45 -4 -85 -6 -88 -2 -4 -7 -76
-10 -161 -7 -206 -26 -347 -61 -444 -16 -44 -32 -81 -36 -83 -5 -2 -8 -8 -8
-14 0 -17 -80 -190 -95 -204 -7 -8 -17 -23 -20 -34 -6 -20 -16 -20 -779 -20
l-773 0 -6 29 c-11 51 10 283 32 361 23 83 71 203 83 208 5 2 8 11 8 19 0 17
51 116 63 121 4 2 7 10 7 18 0 8 5 14 10 14 6 0 10 6 10 13 0 12 193 305 209
317 3 3 24 32 46 65 22 33 46 66 53 73 6 7 12 17 12 22 0 5 6 15 13 22 13 14
63 88 87 130 8 14 35 60 58 102 24 42 48 76 53 76 5 0 9 6 9 14 0 18 71 136
82 136 4 0 8 6 8 13 0 6 18 35 40 62 21 28 46 65 56 83 13 27 22 32 53 33 30
2 31 3 9 6 -16 2 -28 10 -28 17 0 14 21 64 45 106 8 14 15 32 15 41 0 9 7 22
15 29 8 7 15 18 15 25 0 6 11 34 25 61 14 27 25 56 26 64 0 17 9 -2 28 -61z
m-1273 -1062 c-3 -18 -8 -158 -11 -312 -6 -284 5 -556 29 -735 7 -52 11 -98 9
-102 -2 -5 -148 -8 -324 -8 -323 0 -336 1 -350 35 -2 6 -20 36 -39 69 -91 152
-90 148 -90 288 0 70 5 174 10 230 6 57 15 153 21 213 14 141 35 200 54 148 3
-10 20 -29 36 -42 26 -20 34 -22 53 -12 33 18 116 10 130 -12 8 -14 8 -20 -4
-27 -17 -11 -11 -12 85 -11 144 1 199 21 252 94 39 52 103 172 103 191 0 17
21 36 32 30 5 -3 6 -20 4 -37z m-1162 -69 c3 -7 7 -125 10 -263 l6 -250 -40
43 c-22 24 -40 49 -40 56 0 7 -3 16 -7 20 -38 37 -44 217 -12 322 12 38 26 72
33 76 18 12 46 9 50 -4z m3404 -28 c3 -28 13 -74 38 -171 13 -55 14 -76 5
-119 -13 -60 -96 -240 -111 -240 -7 0 -9 98 -6 278 2 152 4 278 5 280 1 2 16
2 34 0 26 -2 33 -8 35 -28z"/>
<path d="M1630 2330 c0 -12 47 -12 75 0 15 6 8 9 -27 9 -27 1 -48 -3 -48 -9z"/>
<path d="M3100 2833 c0 -13 5 -23 10 -23 13 0 13 11 0 30 -8 12 -10 11 -10 -7z"/>
<path d="M3130 2706 c0 -17 16 -30 23 -19 3 5 -1 14 -9 21 -12 10 -14 10 -14
-2z"/>
<path d="M2180 1040 c0 -6 7 -10 15 -10 8 0 15 2 15 4 0 2 -7 6 -15 10 -8 3
-15 1 -15 -4z"/>
<path d="M2395 1040 c-16 -7 -17 -9 -3 -9 9 -1 20 4 23 9 7 11 7 11 -20 0z"/>
<path d="M4180 2351 c0 -6 4 -13 10 -16 6 -3 7 1 4 9 -7 18 -14 21 -14 7z"/>
<path d="M4270 2200 c0 -5 5 -10 11 -10 5 0 7 5 4 10 -3 6 -8 10 -11 10 -2 0
-4 -4 -4 -10z"/>
<path d="M4490 1900 c0 -5 5 -10 11 -10 5 0 7 5 4 10 -3 6 -8 10 -11 10 -2 0
-4 -4 -4 -10z"/>
<path d="M4192 960 c-14 -23 -15 -30 -3 -30 8 0 24 41 18 47 -2 1 -8 -7 -15
-17z"/>
<path d="M342 860 c0 -14 2 -19 5 -12 2 6 2 18 0 25 -3 6 -5 1 -5 -13z"/>
<path d="M80 826 c0 -2 7 -7 16 -10 8 -3 12 -2 9 4 -6 10 -25 14 -25 6z"/>
</g>
</svg>
